{
    "asset" : {
        "generator" : "Khronos glTF Blender I/O v1.1.46",
        "version" : "2.0"
    },
    "scene" : 0,
    "scenes" : [
        {
            "name" : "Scene",
            "nodes" : [
                0,
                1,
                2
            ]
        }
    ],
    "nodes" : [
        {
            "name" : "Map",
            "scale" : [
                5.988959312438965,
                5.988959312438965,
                5.988959312438965
            ],
            "translation" : [
                -32.216331481933594,
                0.13977186381816864,
                -0.0461975634098053
            ]
        },
        {
            "mesh" : 0,
            "name" : "Plane",
            "scale" : [
                6.6190385818481445,
                1,
                4.314663887023926
            ],
            "translation" : [
                -0.8801084756851196,
                0.3886919915676117,
                5.129298686981201
            ]
        },
        {
            "name" : "Sun",
            "rotation" : [
                0.26808175444602966,
                0,
                0.26586806774139404,
                0.9259839653968811
            ],
            "translation" : [
                0,
                25.32122039794922,
                23.13528823852539
            ]
        }
    ],
    "meshes" : [
        {
            "name" : "Plane.002",
            "primitives" : [
                {
                    "attributes" : {
                        "POSITION" : 0,
                        "NORMAL" : 1,
                        "TEXCOORD_0" : 2
                    },
                    "indices" : 3
                }
            ]
        }
    ],
    "accessors" : [
        {
            "bufferView" : 0,
            "componentType" : 5126,
            "count" : 233,
            "max" : [
                2.404183864593506,
                5.903476238250732,
                1
            ],
            "min" : [
                -2.1052780151367188,
                0,
                -3.8764450550079346
            ],
            "type" : "VEC3"
        },
        {
            "bufferView" : 1,
            "componentType" : 5126,
            "count" : 233,
            "type" : "VEC3"
        },
        {
            "bufferView" : 2,
            "componentType" : 5126,
            "count" : 233,
            "type" : "VEC2"
        },
        {
            "bufferView" : 3,
            "componentType" : 5123,
            "count" : 441,
            "type" : "SCALAR"
        }
    ],
    "bufferViews" : [
        {
            "buffer" : 0,
            "byteLength" : 2796,
            "byteOffset" : 0
        },
        {
            "buffer" : 0,
            "byteLength" : 2796,
            "byteOffset" : 2796
        },
        {
            "buffer" : 0,
            "byteLength" : 1864,
            "byteOffset" : 5592
        },
        {
            "buffer" : 0,
            "byteLength" : 882,
            "byteOffset" : 7456
        }
    ],
    "buffers" : [
        {
            "byteLength" : 8340,
            "uri" : "data:application/octet-stream;base64,"
        }
    ]
}
