{
    "asset" : {
        "generator" : "Khronos glTF Blender I/O v1.1.46",
        "version" : "2.0"
    },
    "scene" : 0,
    "scenes" : [
        {
            "name" : "Scene",
            "nodes" : [
                0,
                1,
                2,
                3
            ]
        }
    ],
    "nodes" : [
        {
            "name" : "Map",
            "scale" : [
                5.988959312438965,
                5.988959312438965,
                5.988959312438965
            ],
            "translation" : [
                -32.216331481933594,
                0.13977186381816864,
                -0.0461975634098053
            ]
        },
        {
            "mesh" : 0,
            "name" : "Plane",
            "scale" : [
                6.6190385818481445,
                1,
                4.314663887023926
            ],
            "translation" : [
                -0.8801084756851196,
                0.3886919915676117,
                5.129298686981201
            ]
        },
        {
            "name" : "Sun",
            "rotation" : [
                0.26808175444602966,
                0,
                0.26586806774139404,
                0.9259839653968811
            ],
            "translation" : [
                0,
                25.32122039794922,
                23.13528823852539
            ]
        },
        {
            "mesh" : 1,
            "name" : "3d-model 2",
            "rotation" : [
                -0.7071068286895752,
                0,
                0,
                -0.7071067094802856
            ],
            "scale" : [
                0.13587187230587006,
                0.134419247508049,
                0.134419247508049
            ],
            "translation" : [
                -0.39441269636154175,
                0.35858598351478577,
                -10.7420654296875
            ]
        }
    ],
    "materials" : [
        {
            "doubleSided" : true,
            "emissiveFactor" : [
                0,
                0,
                0
            ],
            "name" : "Translucent_Glass_Gray",
            "pbrMetallicRoughness" : {
                "baseColorFactor" : [
                    0.800000011920929,
                    0.800000011920929,
                    0.800000011920929,
                    1
                ],
                "metallicFactor" : 0,
                "roughnessFactor" : 0.5
            }
        },
        {
            "doubleSided" : true,
            "emissiveFactor" : [
                0,
                0,
                0
            ],
            "name" : "Sol",
            "pbrMetallicRoughness" : {
                "baseColorFactor" : [
                    0.10281255096197128,
                    0.06804274022579193,
                    0.014175725169479847,
                    1
                ],
                "metallicFactor" : 0.1666666716337204,
                "roughnessFactor" : 0.5
            }
        },
        {
            "doubleSided" : true,
            "emissiveFactor" : [
                0,
                0,
                0
            ],
            "name" : "skp_front_default",
            "pbrMetallicRoughness" : {
                "baseColorFactor" : [
                    0.800000011920929,
                    0.800000011920929,
                    0.800000011920929,
                    1
                ],
                "metallicFactor" : 0,
                "roughnessFactor" : 0.5
            }
        }
    ],
    "meshes" : [
        {
            "name" : "Plane.002",
            "primitives" : [
                {
                    "attributes" : {
                        "POSITION" : 0,
                        "NORMAL" : 1,
                        "TEXCOORD_0" : 2
                    },
                    "indices" : 3,
                    "material" : 0
                },
                {
                    "attributes" : {
                        "POSITION" : 4,
                        "NORMAL" : 5,
                        "TEXCOORD_0" : 6
                    },
                    "indices" : 7,
                    "material" : 1
                }
            ]
        },
        {
            "name" : "3d-model 2",
            "primitives" : [
                {
                    "attributes" : {
                        "POSITION" : 8,
                        "NORMAL" : 9,
                        "TEXCOORD_0" : 10
                    },
                    "indices" : 11,
                    "material" : 0
                },
                {
                    "attributes" : {
                        "POSITION" : 12,
                        "NORMAL" : 13,
                        "TEXCOORD_0" : 14
                    },
                    "indices" : 15,
                    "material" : 2
                }
            ]
        }
    ],
    "accessors" : [
        {
            "bufferView" : 0,
            "componentType" : 5126,
            "count" : 941,
            "max" : [
                2.4343998432159424,
                5.903476238250732,
                1
            ],
            "min" : [
                -2.1052780151367188,
                0,
                -3.9227986335754395
            ],
            "type" : "VEC3"
        },
        {
            "bufferView" : 1,
            "componentType" : 5126,
            "count" : 941,
            "type" : "VEC3"
        },
        {
            "bufferView" : 2,
            "componentType" : 5126,
            "count" : 941,
            "type" : "VEC2"
        },
        {
            "bufferView" : 3,
            "componentType" : 5123,
            "count" : 1512,
            "type" : "SCALAR"
        },
        {
            "bufferView" : 4,
            "componentType" : 5126,
            "count" : 50,
            "max" : [
                2.404183864593506,
                0,
                1
            ],
            "min" : [
                -2.1052780151367188,
                0,
                -3.8685104846954346
            ],
            "type" : "VEC3"
        },
        {
            "bufferView" : 5,
            "componentType" : 5126,
            "count" : 50,
            "type" : "VEC3"
        },
        {
            "bufferView" : 6,
            "componentType" : 5126,
            "count" : 50,
            "type" : "VEC2"
        },
        {
            "bufferView" : 7,
            "componentType" : 5123,
            "count" : 102,
            "type" : "SCALAR"
        },
        {
            "bufferView" : 8,
            "componentType" : 5126,
            "count" : 24,
            "max" : [
                23.9507999420166,
                6.3379998207092285,
                -8.746600151062012
            ],
            "min" : [
                -24.080699920654297,
                -5.4730000495910645,
                -9.140299797058105
            ],
            "type" : "VEC3"
        },
        {
            "bufferView" : 9,
            "componentType" : 5126,
            "count" : 24,
            "type" : "VEC3"
        },
        {
            "bufferView" : 10,
            "componentType" : 5126,
            "count" : 24,
            "type" : "VEC2"
        },
        {
            "bufferView" : 11,
            "componentType" : 5123,
            "count" : 36,
            "type" : "SCALAR"
        },
        {
            "bufferView" : 12,
            "componentType" : 5126,
            "count" : 2242,
            "max" : [
                24.568599700927734,
                6.49560022354126,
                0
            ],
            "min" : [
                -24.568599700927734,
                -6.49560022354126,
                -9.607999801635742
            ],
            "type" : "VEC3"
        },
        {
            "bufferView" : 13,
            "componentType" : 5126,
            "count" : 2242,
            "type" : "VEC3"
        },
        {
            "bufferView" : 14,
            "componentType" : 5126,
            "count" : 2242,
            "type" : "VEC2"
        },
        {
            "bufferView" : 15,
            "componentType" : 5123,
            "count" : 6756,
            "type" : "SCALAR"
        }
    ],
    "bufferViews" : [
        {
            "buffer" : 0,
            "byteLength" : 11292,
            "byteOffset" : 0
        },
        {
            "buffer" : 0,
            "byteLength" : 11292,
            "byteOffset" : 11292
        },
        {
            "buffer" : 0,
            "byteLength" : 7528,
            "byteOffset" : 22584
        },
        {
            "buffer" : 0,
            "byteLength" : 3024,
            "byteOffset" : 30112
        },
        {
            "buffer" : 0,
            "byteLength" : 600,
            "byteOffset" : 33136
        },
        {
            "buffer" : 0,
            "byteLength" : 600,
            "byteOffset" : 33736
        },
        {
            "buffer" : 0,
            "byteLength" : 400,
            "byteOffset" : 34336
        },
        {
            "buffer" : 0,
            "byteLength" : 204,
            "byteOffset" : 34736
        },
        {
            "buffer" : 0,
            "byteLength" : 288,
            "byteOffset" : 34940
        },
        {
            "buffer" : 0,
            "byteLength" : 288,
            "byteOffset" : 35228
        },
        {
            "buffer" : 0,
            "byteLength" : 192,
            "byteOffset" : 35516
        },
        {
            "buffer" : 0,
            "byteLength" : 72,
            "byteOffset" : 35708
        },
        {
            "buffer" : 0,
            "byteLength" : 26904,
            "byteOffset" : 35780
        },
        {
            "buffer" : 0,
            "byteLength" : 26904,
            "byteOffset" : 62684
        },
        {
            "buffer" : 0,
            "byteLength" : 17936,
            "byteOffset" : 89588
        },
        {
            "buffer" : 0,
            "byteLength" : 13512,
            "byteOffset" : 107524
        }
    ],
    "buffers" : [
        {
            "byteLength" : 121036,
            "uri" : "data:application/octet-stream;base64,"
        }
    ]
}
