<?xml version="1.0" standalone="no"?>
<!DOCTYPE svg PUBLIC "-//W3C//DTD SVG 20010904//EN"
 "http://www.w3.org/TR/2001/REC-SVG-20010904/DTD/svg10.dtd">
<svg version="1.0" xmlns="http://www.w3.org/2000/svg"
 width="480.000000pt" height="480.000000pt" viewBox="0 0 480.000000 480.000000"
 preserveAspectRatio="xMidYMid meet">
<metadata>
Created by potrace 1.11, written by Peter Selinger 2001-2013
</metadata>
<g transform="translate(0.000000,480.000000) scale(0.100000,-0.100000)"
fill="#000000" stroke="none">
<path d="M1445 3000 c-2 -4 14 -14 35 -24 73 -32 100 -91 60 -134 -11 -12 -20
-22 -20 -24 0 -5 451 0 457 5 7 8 -81 66 -140 91 -74 33 -383 101 -392 86z"/>
<path d="M1240 2629 c-35 -26 -64 -50 -66 -52 -2 -2 350 -4 784 -4 l787 0 63
45 c34 25 62 49 62 52 0 4 -353 7 -784 7 l-784 0 -62 -48z"/>
<path d="M964 2472 l-70 -3 -53 -53 -53 -53 1477 0 1476 0 65 54 66 53 -34 0
c-240 3 -2822 4 -2874 2z"/>
<path d="M457 2177 l-58 -52 2003 1 2003 1 115 51 115 51 -2060 1 -2060 0 -58
-53z"/>
<path d="M898 1960 c-5 -35 7 -41 16 -7 8 30 7 37 -3 37 -5 0 -11 -13 -13 -30z"/>
<path d="M1360 1885 c0 -58 3 -105 8 -105 4 0 7 47 7 105 0 58 -3 105 -7 105
-5 0 -8 -47 -8 -105z"/>
<path d="M690 1880 l0 -100 50 0 c81 0 130 38 130 100 0 62 -49 100 -130 100
l-50 0 0 -100z m127 72 c57 -31 45 -131 -19 -150 -49 -16 -88 -13 -89 7 -4 44
-5 147 -2 153 6 11 85 3 110 -10z"/>
<path d="M970 1880 l0 -100 50 0 c81 0 130 38 130 100 0 62 -49 100 -130 100
l-50 0 0 -100z m127 72 c22 -12 39 -46 35 -72 -10 -66 -29 -82 -99 -85 -33 -2
-43 1 -44 14 -3 38 -4 147 -1 153 4 11 84 3 109 -10z"/>
<path d="M1900 1936 c0 -2 11 -6 25 -8 14 -3 25 -1 25 3 0 5 -11 9 -25 9 -14
0 -25 -2 -25 -4z"/>
<path d="M1964 1933 c9 -9 2066 -10 2066 0 0 4 -466 7 -1037 7 -570 0 -1033
-3 -1029 -7z"/>
<path d="M4044 1933 c10 -10 46 -11 46 -1 0 4 -12 8 -27 8 -14 0 -23 -3 -19
-7z"/>
<path d="M4104 1931 c6 -8 65 -5 74 4 3 3 -14 5 -37 5 -23 0 -40 -4 -37 -9z"/>
<path d="M1200 1915 l-25 -15 30 7 c29 6 64 7 70 1 2 -2 5 -12 7 -23 2 -17 -3
-20 -34 -21 -44 -1 -70 -20 -66 -48 4 -27 52 -45 78 -28 24 15 33 15 25 2 -3
-5 -1 -10 6 -10 17 0 7 129 -12 141 -20 13 -50 10 -79 -6z m85 -75 c8 -14 -32
-50 -52 -47 -34 5 -44 17 -33 38 11 20 74 28 85 9z"/>
<path d="M1445 1905 c-14 -13 -25 -36 -25 -50 0 -14 11 -37 25 -50 40 -41 95
-29 114 25 27 78 -57 133 -114 75z m91 -6 c17 -14 18 -59 2 -82 -32 -43 -100
-17 -100 38 0 52 58 78 98 44z"/>
<path d="M1608 1919 c-21 -12 -23 -42 -5 -57 7 -6 26 -13 42 -16 34 -6 48 -24
32 -41 -12 -13 -56 -13 -76 -1 -6 4 -11 3 -11 -3 0 -6 15 -13 34 -16 83 -16
106 54 25 75 -29 8 -39 16 -39 30 0 11 5 21 10 21 6 1 16 2 23 3 6 1 20 -2 30
-6 10 -5 17 -5 17 1 0 20 -53 27 -82 10z"/>
<path d="M2218 1863 c7 -3 16 -2 19 1 4 3 -2 6 -13 5 -11 0 -14 -3 -6 -6z"/>
<path d="M2278 1863 c7 -3 16 -2 19 1 4 3 -2 6 -13 5 -11 0 -14 -3 -6 -6z"/>
<path d="M2348 1863 c7 -3 16 -2 19 1 4 3 -2 6 -13 5 -11 0 -14 -3 -6 -6z"/>
<path d="M2468 1863 c6 -2 18 -2 25 0 6 3 1 5 -13 5 -14 0 -19 -2 -12 -5z"/>
<path d="M2538 1863 c7 -3 16 -2 19 1 4 3 -2 6 -13 5 -11 0 -14 -3 -6 -6z"/>
<path d="M2598 1863 c7 -3 16 -2 19 1 4 3 -2 6 -13 5 -11 0 -14 -3 -6 -6z"/>
<path d="M2668 1863 c7 -3 16 -2 19 1 4 3 -2 6 -13 5 -11 0 -14 -3 -6 -6z"/>
<path d="M2788 1863 c6 -2 18 -2 25 0 6 3 1 5 -13 5 -14 0 -19 -2 -12 -5z"/>
<path d="M2858 1863 c7 -3 16 -2 19 1 4 3 -2 6 -13 5 -11 0 -14 -3 -6 -6z"/>
<path d="M2918 1863 c7 -3 16 -2 19 1 4 3 -2 6 -13 5 -11 0 -14 -3 -6 -6z"/>
<path d="M2988 1863 c7 -3 16 -2 19 1 4 3 -2 6 -13 5 -11 0 -14 -3 -6 -6z"/>
<path d="M3108 1863 c6 -2 18 -2 25 0 6 3 1 5 -13 5 -14 0 -19 -2 -12 -5z"/>
<path d="M3178 1863 c6 -2 18 -2 25 0 6 3 1 5 -13 5 -14 0 -19 -2 -12 -5z"/>
<path d="M3258 1863 c6 -2 18 -2 25 0 6 3 1 5 -13 5 -14 0 -19 -2 -12 -5z"/>
<path d="M3313 1863 c9 -2 23 -2 30 0 6 3 -1 5 -18 5 -16 0 -22 -2 -12 -5z"/>
<path d="M3393 1863 c9 -2 23 -2 30 0 6 3 -1 5 -18 5 -16 0 -22 -2 -12 -5z"/>
<path d="M3498 1863 c6 -2 18 -2 25 0 6 3 1 5 -13 5 -14 0 -19 -2 -12 -5z"/>
<path d="M3548 1863 c7 -3 16 -2 19 1 4 3 -2 6 -13 5 -11 0 -14 -3 -6 -6z"/>
<path d="M3718 1863 c7 -3 16 -2 19 1 4 3 -2 6 -13 5 -11 0 -14 -3 -6 -6z"/>
<path d="M3788 1863 c7 -3 16 -2 19 1 4 3 -2 6 -13 5 -11 0 -14 -3 -6 -6z"/>
<path d="M2118 1803 c7 -3 16 -2 19 1 4 3 -2 6 -13 5 -11 0 -14 -3 -6 -6z"/>
<path d="M2218 1803 c7 -3 16 -2 19 1 4 3 -2 6 -13 5 -11 0 -14 -3 -6 -6z"/>
<path d="M2428 1803 c7 -3 16 -2 19 1 4 3 -2 6 -13 5 -11 0 -14 -3 -6 -6z"/>
<path d="M2543 1803 c9 -2 23 -2 30 0 6 3 -1 5 -18 5 -16 0 -22 -2 -12 -5z"/>
<path d="M2748 1803 c7 -3 16 -2 19 1 4 3 -2 6 -13 5 -11 0 -14 -3 -6 -6z"/>
<path d="M2858 1803 c7 -3 16 -2 19 1 4 3 -2 6 -13 5 -11 0 -14 -3 -6 -6z"/>
<path d="M3068 1803 c7 -3 16 -2 19 1 4 3 -2 6 -13 5 -11 0 -14 -3 -6 -6z"/>
<path d="M3178 1803 c6 -2 18 -2 25 0 6 3 1 5 -13 5 -14 0 -19 -2 -12 -5z"/>
<path d="M3268 1803 c7 -3 16 -2 19 1 4 3 -2 6 -13 5 -11 0 -14 -3 -6 -6z"/>
<path d="M3308 1803 c7 -3 16 -2 19 1 4 3 -2 6 -13 5 -11 0 -14 -3 -6 -6z"/>
<path d="M3428 1803 c7 -3 16 -2 19 1 4 3 -2 6 -13 5 -11 0 -14 -3 -6 -6z"/>
<path d="M3468 1803 c7 -3 16 -2 19 1 4 3 -2 6 -13 5 -11 0 -14 -3 -6 -6z"/>
<path d="M3558 1803 c7 -3 16 -2 19 1 4 3 -2 6 -13 5 -11 0 -14 -3 -6 -6z"/>
<path d="M3598 1803 c7 -3 16 -2 19 1 4 3 -2 6 -13 5 -11 0 -14 -3 -6 -6z"/>
<path d="M3638 1803 c7 -3 16 -2 19 1 4 3 -2 6 -13 5 -11 0 -14 -3 -6 -6z"/>
<path d="M1935 1739 c-22 -3 405 -7 949 -8 544 0 986 2 983 5 -8 9 -1879 11
-1932 3z"/>
</g>
</svg>
